<svg aria-hidden="true" style="position: absolute; width: 0; height: 0; overflow: hidden;" version="1.1"
    xmlns="http://www.w3.org/2000/svg" xmlns:xlink="http://www.w3.org/1999/xlink">
    <defs>
        <symbol id="icon-facebook" viewBox="0 0 16 32">
            <path
                d="M14.266 15.97h-4.176v15.39h-6.327v-15.39h-3.009v-5.409h3.009v-3.5c0-2.503 1.182-6.422 6.384-6.422l4.687 0.020v5.25h-3.401c-0.558 0-1.342 0.28-1.342 1.474v3.183h4.729l-0.553 5.403z">
            </path>
        </symbol>
        <symbol id="icon-github" viewBox="0 0 32 32">
            <path
                d="M16 0.941c-8.271 0-15.059 6.788-15.059 15.059 0 7.058 4.953 13.47 11.529 15.059v-4.982c-0.652 0.143-1.251 0.147-1.915-0.049-0.89-0.263-1.613-0.856-2.15-1.76-0.342-0.577-0.949-1.203-1.581-1.157l-0.155-1.758c1.368-0.117 2.551 0.833 3.254 2.013 0.312 0.525 0.671 0.832 1.132 0.969 0.446 0.131 0.924 0.068 1.481-0.129 0.14-1.116 0.651-1.534 1.037-2.122v-0.001c-3.922-0.585-5.486-2.666-6.106-4.308-0.822-2.181-0.381-4.905 1.073-6.627 0.028-0.034 0.079-0.121 0.060-0.183-0.667-2.014 0.146-3.679 0.176-3.856 0.769 0.228 0.894-0.229 3.342 1.258l0.423 0.254c0.177 0.105 0.121 0.045 0.298 0.032 1.022-0.278 2.099-0.431 3.16-0.445 1.069 0.014 2.14 0.167 3.204 0.456l0.137 0.014c-0.012-0.002 0.037-0.009 0.12-0.058 3.057-1.852 2.947-1.247 3.767-1.513 0.030 0.177 0.831 1.87 0.172 3.858-0.089 0.274 2.65 2.782 1.132 6.809-0.62 1.643-2.184 3.724-6.106 4.309v0.001c0.503 0.766 1.107 1.174 1.104 2.755v6.219c6.577-1.589 11.529-8.001 11.529-15.059 0-8.271-6.787-15.059-15.059-15.059v0z">
            </path>
        </symbol>
        <symbol id="icon-telegram" viewBox="0 0 40 32">
            <path
                d="M16.205 20.751l-0.635 8.339c0.909 0 1.302-0.364 1.774-0.802l4.261-3.801 8.829 6.035c1.619 0.842 2.76 0.399 3.197-1.39l5.797-25.346c0.514-2.234-0.866-3.108-2.443-2.56l-34.065 12.172c-2.325 0.842-2.29 2.052-0.395 2.6l8.709 2.528 20.229-11.814c0.952-0.588 1.818-0.263 1.106 0.326l-16.364 13.713z">
            </path>
        </symbol>
        <symbol id="icon-arrow-buttom" viewBox="0 0 28 32">
            <path fill="none" stroke-linejoin="round" stroke-linecap="round" stroke-miterlimit="4" stroke-width="3.5556"
                d="M9.985 1.778l7.871 7.111-7.871 7.111"></path>
        </symbol>
        <symbol id="icon-Burger" viewBox="0 0 46 32">
            <path stroke="#d41443" stroke-width="2.2857" stroke-miterlimit="4" stroke-linecap="butt"
                stroke-linejoin="miter" style="stroke: var(--color1, #d41443)" d="M0 2.286h45.714"></path>
            <path stroke="#d41443" stroke-width="2.2857" stroke-miterlimit="4" stroke-linecap="butt"
                stroke-linejoin="miter" style="stroke: var(--color1, #d41443)" d="M0 16h45.714"></path>
            <path stroke="#d41443" stroke-width="2.2857" stroke-miterlimit="4" stroke-linecap="butt"
                stroke-linejoin="miter" style="stroke: var(--color1, #d41443)" d="M0 29.714h45.714"></path>
        </symbol>
        <symbol id="icon-cafes" viewBox="0 0 31 32">
            <path fill="#fff" style="fill: var(--color1, #fff)"
                d="M19.636 5.818c0 3.213 2.605 5.818 5.818 5.818s5.818-2.605 5.818-5.818c0-3.213-2.605-5.818-5.818-5.818s-5.818 2.605-5.818 5.818z">
            </path>
            <path fill="#d41443" style="fill: var(--color2, #d41443)"
                d="M8.885 20.602c0 0.149-0.414 0.271-1.242 0.367-0.828 0.081-1.656 0.122-2.484 0.122s-1.364-0.034-1.609-0.102c-0.231-0.081-0.346-0.21-0.346-0.387v-8.797h-2.077c-0.231 0-0.346-0.495-0.346-1.487s0.115-1.887 0.346-2.688c0.068-0.258 0.787-0.495 2.159-0.713s2.423-0.326 3.156-0.326c0.733 0 1.222 0.027 1.466 0.081s0.428 0.122 0.55 0.204c0.122 0.068 0.217 0.149 0.285 0.244 0.095 0.149 0.143 0.292 0.143 0.428v13.053zM16.809 12.192c0.122-0.109 0.448-0.251 0.977-0.428s1.127-0.265 1.792-0.265c0.679 0 1.249 0.102 1.711 0.305 0.475 0.19 0.842 0.434 1.1 0.733 0.272 0.299 0.482 0.672 0.631 1.12 0.244 0.733 0.367 1.48 0.367 2.24s-0.034 1.337-0.102 1.731c-0.054 0.38-0.204 0.808-0.448 1.283-0.231 0.475-0.55 0.876-0.957 1.201-0.394 0.326-0.964 0.604-1.711 0.835-0.733 0.217-1.595 0.326-2.586 0.326-2.131 0-3.74-0.584-4.826-1.751-1.086-1.181-1.629-3.082-1.629-5.702 0-2.634 0.509-4.527 1.527-5.681 1.018-1.168 2.566-1.751 4.643-1.751 1.425 0 2.661 0.109 3.706 0.326 1.059 0.204 1.588 0.448 1.588 0.733 0 0.353-0.136 0.971-0.407 1.853-0.258 0.882-0.495 1.324-0.713 1.324-0.068 0-0.271-0.034-0.611-0.102-0.923-0.19-1.765-0.285-2.525-0.285s-1.249 0.19-1.466 0.57c-0.217 0.367-0.326 0.91-0.326 1.629 0.054-0.068 0.143-0.149 0.265-0.244zM17.257 14.025c-0.394 0-0.591 0.733-0.591 2.199 0 1.453 0.197 2.179 0.591 2.179 0.421 0 0.631-0.726 0.631-2.179 0-1.466-0.21-2.199-0.631-2.199z">
            </path>
            <path fill="#fff" style="fill: var(--color1, #fff)"
                d="M11.217 30.615c-0.275 0-0.524-0.062-0.745-0.186-0.217-0.128-0.39-0.305-0.518-0.529-0.124-0.229-0.186-0.495-0.186-0.797s0.062-0.566 0.186-0.791c0.128-0.229 0.301-0.405 0.518-0.529 0.221-0.128 0.469-0.192 0.745-0.192 0.341 0 0.628 0.089 0.861 0.268 0.237 0.178 0.386 0.417 0.448 0.716h-0.5c-0.039-0.178-0.134-0.316-0.285-0.413-0.151-0.101-0.328-0.151-0.529-0.151-0.163 0-0.316 0.041-0.46 0.122s-0.26 0.204-0.349 0.367c-0.089 0.163-0.134 0.365-0.134 0.605s0.045 0.442 0.134 0.605c0.089 0.163 0.206 0.287 0.349 0.372 0.143 0.081 0.297 0.122 0.46 0.122 0.202 0 0.378-0.049 0.529-0.145 0.151-0.101 0.246-0.242 0.285-0.425h0.5c-0.058 0.291-0.206 0.527-0.442 0.71s-0.526 0.273-0.867 0.273zM14.168 30.615c-0.241 0-0.44-0.041-0.599-0.122s-0.277-0.19-0.355-0.326c-0.078-0.136-0.116-0.283-0.116-0.442 0-0.295 0.112-0.522 0.337-0.681s0.531-0.239 0.919-0.239h0.78v-0.035c0-0.252-0.066-0.442-0.198-0.57-0.132-0.132-0.308-0.198-0.529-0.198-0.19 0-0.355 0.049-0.495 0.145-0.136 0.093-0.221 0.231-0.256 0.413h-0.5c0.019-0.209 0.089-0.386 0.209-0.529 0.124-0.143 0.277-0.252 0.46-0.326 0.182-0.078 0.376-0.116 0.582-0.116 0.403 0 0.706 0.109 0.908 0.326 0.206 0.213 0.308 0.498 0.308 0.855v1.775h-0.436l-0.029-0.518c-0.081 0.163-0.202 0.303-0.361 0.419-0.155 0.113-0.365 0.169-0.628 0.169zM14.244 30.202c0.186 0 0.345-0.049 0.477-0.145 0.136-0.097 0.239-0.223 0.308-0.378s0.105-0.318 0.105-0.489v-0.006h-0.739c-0.287 0-0.491 0.050-0.611 0.151-0.116 0.097-0.175 0.219-0.175 0.367 0 0.151 0.054 0.273 0.163 0.367 0.112 0.089 0.27 0.134 0.471 0.134zM16.513 30.545v-2.473h-0.436v-0.413h0.436v-0.5c0-0.279 0.070-0.483 0.209-0.611s0.343-0.192 0.611-0.192h0.291v0.419h-0.215c-0.147 0-0.252 0.031-0.314 0.093-0.062 0.058-0.093 0.159-0.093 0.303v0.489h0.71v0.413h-0.71v2.473h-0.489zM19.477 30.615c-0.275 0-0.52-0.062-0.733-0.186-0.213-0.128-0.382-0.305-0.506-0.529-0.12-0.225-0.18-0.491-0.18-0.797 0-0.303 0.060-0.566 0.18-0.791 0.12-0.229 0.287-0.405 0.5-0.529 0.217-0.128 0.467-0.192 0.751-0.192 0.279 0 0.52 0.064 0.721 0.192 0.206 0.124 0.363 0.289 0.471 0.495s0.163 0.427 0.163 0.663c0 0.043-0.002 0.085-0.006 0.128 0 0.043 0 0.091 0 0.145h-2.298c0.012 0.221 0.062 0.405 0.151 0.553 0.093 0.143 0.207 0.252 0.343 0.326 0.14 0.074 0.287 0.111 0.442 0.111 0.202 0 0.37-0.047 0.506-0.14s0.235-0.219 0.297-0.378h0.483c-0.078 0.268-0.227 0.491-0.448 0.669-0.217 0.175-0.497 0.262-0.838 0.262zM19.477 28.003c-0.233 0-0.44 0.072-0.623 0.215-0.178 0.14-0.281 0.345-0.308 0.617h1.815c-0.012-0.26-0.101-0.463-0.268-0.611s-0.372-0.221-0.617-0.221zM22.598 30.615c-0.345 0-0.632-0.087-0.861-0.262s-0.363-0.411-0.401-0.71h0.5c0.031 0.151 0.111 0.283 0.239 0.396 0.132 0.109 0.308 0.163 0.529 0.163 0.206 0 0.357-0.043 0.454-0.128 0.097-0.089 0.145-0.194 0.145-0.314 0-0.175-0.064-0.291-0.192-0.349-0.124-0.058-0.301-0.111-0.529-0.157-0.155-0.031-0.31-0.076-0.465-0.134s-0.285-0.14-0.39-0.244c-0.105-0.109-0.157-0.25-0.157-0.425 0-0.252 0.093-0.458 0.279-0.617 0.19-0.163 0.446-0.244 0.768-0.244 0.306 0 0.557 0.078 0.751 0.233 0.198 0.151 0.312 0.369 0.343 0.652h-0.483c-0.019-0.147-0.083-0.262-0.192-0.343-0.105-0.085-0.246-0.128-0.425-0.128-0.175 0-0.31 0.037-0.407 0.111-0.093 0.074-0.14 0.171-0.14 0.291 0 0.116 0.060 0.207 0.18 0.273 0.124 0.066 0.291 0.122 0.5 0.169 0.178 0.039 0.347 0.087 0.506 0.145 0.163 0.054 0.295 0.138 0.396 0.25 0.105 0.109 0.157 0.268 0.157 0.477 0.004 0.26-0.095 0.475-0.297 0.646-0.198 0.167-0.467 0.25-0.809 0.25z">
            </path>
        </symbol>
        <symbol id="icon-food-trucks" viewBox="0 0 38 32">
            <path fill="#fff" style="fill: var(--color1, #fff)"
                d="M26.047 5.954c0 3.288 2.665 5.954 5.953 5.954s5.953-2.665 5.953-5.954c0-3.288-2.665-5.954-5.953-5.954s-5.953 2.665-5.953 5.954z">
            </path>
            <path fill="#d41443" style="fill: var(--color2, #d41443)"
                d="M7.732 11.44c-0.389 0-0.729-0.458-1.021-1.375-0.278-0.917-0.417-1.799-0.417-2.646 0-0.194 0.215-0.41 0.646-0.646 0.431-0.25 1.084-0.472 1.959-0.667s1.827-0.292 2.855-0.292c3.987 0 5.98 1.396 5.98 4.188 0 0.778-0.167 1.507-0.5 2.188s-0.702 1.229-1.104 1.646c-0.403 0.403-0.875 0.778-1.417 1.125-0.625 0.389-1.222 0.695-1.792 0.917h4.167c0.083 0 0.174 0.042 0.271 0.125 0.097 0.069 0.201 0.292 0.313 0.667 0.111 0.361 0.167 0.82 0.167 1.375 0 0.542-0.035 1-0.104 1.375-0.070 0.361-0.153 0.625-0.25 0.792-0.208 0.375-0.396 0.577-0.563 0.604l-0.104 0.021h-9.127c-0.875 0-1.313-1.368-1.313-4.105 0-0.306 0.903-1.146 2.709-2.521 0.681-0.5 1.306-1.049 1.875-1.646s0.854-1.084 0.854-1.459c0-0.417-0.313-0.625-0.938-0.625s-1.285 0.16-1.98 0.479c-0.681 0.319-1.070 0.479-1.167 0.479zM31.18 9.71c0 1.403-0.556 2.452-1.667 3.146 0.153 0.069 0.347 0.236 0.583 0.5 0.25 0.264 0.458 0.528 0.625 0.792 0.431 0.681 0.646 1.486 0.646 2.417 0 1.528-0.549 2.653-1.646 3.376s-2.605 1.084-4.522 1.084c-0.945 0-1.841-0.076-2.688-0.229-0.834-0.167-1.473-0.347-1.917-0.542-0.445-0.208-0.667-0.396-0.667-0.563 0-0.764 0.083-1.438 0.25-2.021s0.354-0.993 0.563-1.229c0.208-0.25 0.41-0.375 0.604-0.375 0.056 0 0.424 0.125 1.104 0.375s1.348 0.375 2 0.375c0.667 0 1-0.208 1-0.625 0-0.57-0.702-0.875-2.105-0.917-0.556-0.014-0.861-0.028-0.917-0.042-0.292-0.097-0.438-0.708-0.438-1.834s0.146-1.743 0.438-1.854c0.056-0.028 0.361-0.042 0.917-0.042 1.403-0.028 2.105-0.313 2.105-0.854 0-0.417-0.306-0.625-0.917-0.625-0.597 0-1.264 0.146-2 0.438s-1.139 0.438-1.209 0.438c-0.319 0-0.611-0.465-0.875-1.396s-0.396-1.591-0.396-1.98c0-0.361 0.403-0.729 1.209-1.104 0.889-0.403 2.195-0.604 3.917-0.604 4.001 0 6.001 1.299 6.001 3.897z">
            </path>
            <path fill="#fff" style="fill: var(--color1, #fff)"
                d="M1.275 30.512v-2.53h-0.447v-0.423h0.447v-0.512c0-0.286 0.071-0.494 0.214-0.625s0.351-0.196 0.625-0.196h0.298v0.429h-0.22c-0.151 0-0.258 0.032-0.321 0.095-0.063 0.060-0.095 0.163-0.095 0.31v0.5h0.726v0.423h-0.726v2.53h-0.5zM4.326 30.583c-0.278 0-0.528-0.063-0.75-0.191s-0.399-0.306-0.53-0.536c-0.127-0.234-0.191-0.508-0.191-0.822s0.066-0.585 0.196-0.816c0.131-0.234 0.308-0.415 0.53-0.542 0.226-0.127 0.478-0.191 0.756-0.191s0.528 0.063 0.75 0.191c0.222 0.127 0.397 0.308 0.524 0.542 0.131 0.23 0.196 0.502 0.196 0.816s-0.066 0.587-0.196 0.822c-0.131 0.23-0.31 0.409-0.536 0.536-0.222 0.127-0.472 0.191-0.75 0.191zM4.326 30.154c0.171 0 0.329-0.042 0.476-0.125s0.266-0.208 0.357-0.375c0.091-0.167 0.137-0.373 0.137-0.619s-0.046-0.452-0.137-0.619c-0.087-0.167-0.204-0.292-0.351-0.375s-0.304-0.125-0.47-0.125c-0.171 0-0.329 0.042-0.476 0.125s-0.266 0.208-0.357 0.375c-0.091 0.167-0.137 0.373-0.137 0.619s0.046 0.452 0.137 0.619c0.091 0.167 0.208 0.292 0.351 0.375 0.147 0.083 0.304 0.125 0.47 0.125zM7.849 30.583c-0.278 0-0.528-0.063-0.75-0.191s-0.399-0.306-0.53-0.536c-0.127-0.234-0.191-0.508-0.191-0.822s0.066-0.585 0.196-0.816c0.131-0.234 0.308-0.415 0.53-0.542 0.226-0.127 0.478-0.191 0.756-0.191s0.528 0.063 0.75 0.191c0.222 0.127 0.397 0.308 0.524 0.542 0.131 0.23 0.196 0.502 0.196 0.816s-0.066 0.587-0.196 0.822c-0.131 0.23-0.31 0.409-0.536 0.536-0.222 0.127-0.472 0.191-0.75 0.191zM7.849 30.154c0.171 0 0.329-0.042 0.476-0.125s0.266-0.208 0.357-0.375c0.091-0.167 0.137-0.373 0.137-0.619s-0.046-0.452-0.137-0.619c-0.087-0.167-0.204-0.292-0.351-0.375s-0.304-0.125-0.47-0.125c-0.171 0-0.329 0.042-0.476 0.125s-0.266 0.208-0.357 0.375c-0.091 0.167-0.137 0.373-0.137 0.619s0.046 0.452 0.137 0.619c0.091 0.167 0.208 0.292 0.351 0.375 0.147 0.083 0.304 0.125 0.47 0.125zM11.367 30.583c-0.294 0-0.552-0.067-0.774-0.202-0.218-0.135-0.389-0.319-0.512-0.554-0.119-0.234-0.179-0.5-0.179-0.798s0.061-0.562 0.185-0.792c0.123-0.234 0.294-0.417 0.512-0.548 0.218-0.135 0.476-0.202 0.774-0.202 0.242 0 0.456 0.050 0.643 0.149s0.331 0.238 0.435 0.417v-1.828h0.5v4.287h-0.452l-0.048-0.488c-0.095 0.143-0.232 0.272-0.411 0.387s-0.403 0.173-0.673 0.173zM11.42 30.148c0.198 0 0.373-0.046 0.524-0.137 0.155-0.095 0.274-0.226 0.357-0.393 0.087-0.167 0.131-0.361 0.131-0.583s-0.044-0.417-0.131-0.583c-0.083-0.167-0.202-0.296-0.357-0.387-0.151-0.095-0.325-0.143-0.524-0.143-0.195 0-0.369 0.048-0.524 0.143-0.151 0.091-0.27 0.22-0.357 0.387-0.083 0.167-0.125 0.361-0.125 0.583s0.042 0.417 0.125 0.583c0.087 0.167 0.206 0.298 0.357 0.393 0.155 0.091 0.329 0.137 0.524 0.137zM16.508 30.512c-0.27 0-0.482-0.066-0.637-0.196s-0.232-0.367-0.232-0.708v-1.625h-0.512v-0.423h0.512l0.066-0.708h0.435v0.708h0.869v0.423h-0.869v1.625c0 0.187 0.038 0.314 0.113 0.381 0.075 0.063 0.208 0.095 0.399 0.095h0.31v0.429h-0.452zM17.643 30.512v-2.953h0.452l0.042 0.566c0.091-0.194 0.23-0.349 0.417-0.464s0.417-0.173 0.691-0.173v0.524h-0.137c-0.175 0-0.335 0.032-0.482 0.095-0.147 0.060-0.264 0.163-0.351 0.31s-0.131 0.349-0.131 0.607v1.488h-0.5zM22.39 27.559v2.953h-0.452l-0.030-0.53c-0.095 0.187-0.232 0.333-0.411 0.441s-0.381 0.161-0.607 0.161c-0.349 0-0.629-0.105-0.839-0.316-0.206-0.214-0.31-0.542-0.31-0.982v-1.727h0.5v1.673c0 0.615 0.254 0.923 0.762 0.923 0.254 0 0.464-0.091 0.631-0.274 0.171-0.187 0.256-0.45 0.256-0.792v-1.53h0.5zM24.57 30.583c-0.282 0-0.536-0.063-0.762-0.191-0.222-0.131-0.399-0.312-0.53-0.542-0.127-0.234-0.191-0.506-0.191-0.816s0.064-0.579 0.191-0.81c0.131-0.234 0.308-0.415 0.53-0.542 0.226-0.131 0.48-0.196 0.762-0.196 0.349 0 0.643 0.091 0.881 0.274 0.242 0.183 0.395 0.427 0.458 0.732h-0.512c-0.040-0.183-0.137-0.323-0.292-0.423-0.155-0.103-0.335-0.155-0.542-0.155-0.167 0-0.323 0.042-0.47 0.125s-0.266 0.208-0.357 0.375c-0.091 0.167-0.137 0.373-0.137 0.619s0.046 0.452 0.137 0.619c0.091 0.167 0.21 0.294 0.357 0.381 0.147 0.083 0.304 0.125 0.47 0.125 0.206 0 0.387-0.050 0.542-0.149 0.155-0.103 0.252-0.248 0.292-0.435h0.512c-0.060 0.298-0.21 0.54-0.452 0.726s-0.538 0.28-0.887 0.28zM26.608 30.512v-4.287h0.5v2.578l1.209-1.244h0.613l-1.31 1.334 1.476 1.619h-0.637l-1.351-1.53v1.53h-0.5zM30.565 30.583c-0.353 0-0.647-0.089-0.881-0.268s-0.371-0.421-0.411-0.726h0.512c0.032 0.155 0.113 0.29 0.244 0.405 0.135 0.111 0.316 0.167 0.542 0.167 0.21 0 0.365-0.044 0.464-0.131 0.099-0.091 0.149-0.198 0.149-0.322 0-0.179-0.066-0.298-0.196-0.357-0.127-0.060-0.308-0.113-0.542-0.161-0.159-0.032-0.318-0.077-0.476-0.137s-0.292-0.143-0.399-0.25c-0.107-0.111-0.161-0.256-0.161-0.435 0-0.258 0.095-0.468 0.286-0.631 0.194-0.167 0.456-0.25 0.786-0.25 0.314 0 0.57 0.079 0.768 0.238 0.202 0.155 0.319 0.377 0.351 0.667h-0.494c-0.020-0.151-0.085-0.268-0.196-0.351-0.107-0.087-0.252-0.131-0.435-0.131-0.179 0-0.318 0.038-0.417 0.113-0.095 0.075-0.143 0.175-0.143 0.298 0 0.119 0.062 0.212 0.185 0.28 0.127 0.067 0.298 0.125 0.512 0.173 0.183 0.040 0.355 0.089 0.518 0.149 0.167 0.056 0.302 0.141 0.405 0.256 0.107 0.111 0.161 0.274 0.161 0.488 0.004 0.266-0.097 0.486-0.304 0.661-0.202 0.171-0.478 0.256-0.828 0.256z">
            </path>
        </symbol>
        <symbol id="icon-food-trucks-desktop" viewBox="0 0 39 32">
            <path fill="#fff" style="fill: var(--color1, #fff)"
                d="M38.737 6.316c0 3.488-2.828 6.316-6.316 6.316s-6.316-2.828-6.316-6.316c0-3.488 2.828-6.316 6.316-6.316s6.316 2.828 6.316 6.316z">
            </path>
            <path fill="#d41443" style="fill: var(--color2, #d41443)"
                d="M8.601 11.475c-0.362 0-0.678-0.426-0.949-1.278-0.258-0.852-0.387-1.672-0.387-2.46 0-0.181 0.2-0.381 0.6-0.6 0.4-0.232 1.007-0.439 1.821-0.62s1.698-0.271 2.653-0.271c3.706 0 5.559 1.298 5.559 3.893 0 0.723-0.155 1.401-0.465 2.034s-0.652 1.143-1.027 1.53c-0.374 0.374-0.813 0.723-1.317 1.046-0.581 0.362-1.136 0.646-1.666 0.852h3.874c0.077 0 0.161 0.039 0.252 0.116 0.090 0.065 0.187 0.271 0.291 0.62 0.103 0.336 0.155 0.762 0.155 1.278 0 0.504-0.032 0.93-0.097 1.278-0.065 0.336-0.142 0.581-0.232 0.736-0.194 0.349-0.368 0.536-0.523 0.562l-0.097 0.019h-8.483c-0.813 0-1.22-1.272-1.22-3.816 0-0.284 0.839-1.065 2.518-2.344 0.633-0.465 1.214-0.975 1.743-1.53s0.794-1.007 0.794-1.356c0-0.387-0.291-0.581-0.872-0.581s-1.194 0.149-1.84 0.445c-0.633 0.297-0.994 0.445-1.085 0.445zM30.395 9.868c0 1.304-0.517 2.279-1.549 2.925 0.142 0.065 0.323 0.22 0.542 0.465 0.232 0.245 0.426 0.491 0.581 0.736 0.4 0.633 0.6 1.382 0.6 2.247 0 1.42-0.51 2.466-1.53 3.138s-2.421 1.007-4.203 1.007c-0.878 0-1.711-0.071-2.499-0.213-0.775-0.155-1.369-0.323-1.782-0.504-0.413-0.194-0.62-0.368-0.62-0.523 0-0.71 0.077-1.336 0.232-1.879s0.329-0.923 0.523-1.143c0.194-0.232 0.381-0.349 0.562-0.349 0.052 0 0.394 0.116 1.027 0.349s1.252 0.349 1.859 0.349c0.62 0 0.93-0.194 0.93-0.581 0-0.529-0.652-0.813-1.956-0.852-0.517-0.013-0.801-0.026-0.852-0.039-0.271-0.090-0.407-0.659-0.407-1.704s0.136-1.62 0.407-1.724c0.052-0.026 0.336-0.039 0.852-0.039 1.304-0.026 1.956-0.291 1.956-0.794 0-0.387-0.284-0.581-0.852-0.581-0.555 0-1.175 0.136-1.859 0.407s-1.059 0.407-1.123 0.407c-0.297 0-0.568-0.433-0.813-1.298s-0.368-1.478-0.368-1.84c0-0.336 0.374-0.678 1.123-1.027 0.826-0.374 2.040-0.562 3.641-0.562 3.719 0 5.578 1.207 5.578 3.622z">
            </path>
            <path fill="#fff" style="fill: var(--color1, #fff)"
                d="M0.736 30.316v-2.505h-0.442v-0.419h0.442v-0.507c0-0.283 0.071-0.489 0.212-0.619s0.348-0.195 0.619-0.195h0.295v0.424h-0.218c-0.149 0-0.255 0.031-0.318 0.094-0.063 0.059-0.094 0.161-0.094 0.307v0.495h0.719v0.419h-0.719v2.505h-0.495zM3.757 30.387c-0.275 0-0.523-0.063-0.743-0.189s-0.395-0.303-0.525-0.531c-0.126-0.232-0.189-0.503-0.189-0.813s0.065-0.58 0.195-0.808c0.13-0.232 0.305-0.411 0.525-0.536 0.224-0.126 0.474-0.189 0.749-0.189s0.523 0.063 0.743 0.189c0.22 0.126 0.393 0.305 0.519 0.536 0.13 0.228 0.195 0.497 0.195 0.808s-0.065 0.582-0.195 0.813c-0.13 0.228-0.307 0.405-0.531 0.531-0.22 0.126-0.468 0.189-0.743 0.189zM3.757 29.962c0.169 0 0.326-0.041 0.472-0.124s0.263-0.206 0.354-0.371c0.090-0.165 0.136-0.369 0.136-0.613s-0.045-0.448-0.136-0.613c-0.086-0.165-0.202-0.289-0.348-0.371s-0.301-0.124-0.466-0.124c-0.169 0-0.326 0.041-0.472 0.124s-0.263 0.206-0.354 0.371c-0.090 0.165-0.136 0.369-0.136 0.613s0.045 0.448 0.136 0.613c0.090 0.165 0.206 0.289 0.348 0.371 0.145 0.083 0.301 0.124 0.466 0.124zM7.246 30.387c-0.275 0-0.523-0.063-0.743-0.189s-0.395-0.303-0.525-0.531c-0.126-0.232-0.189-0.503-0.189-0.813s0.065-0.58 0.195-0.808c0.13-0.232 0.305-0.411 0.525-0.536 0.224-0.126 0.474-0.189 0.749-0.189s0.523 0.063 0.743 0.189c0.22 0.126 0.393 0.305 0.519 0.536 0.13 0.228 0.195 0.497 0.195 0.808s-0.065 0.582-0.195 0.813c-0.13 0.228-0.307 0.405-0.531 0.531-0.22 0.126-0.468 0.189-0.743 0.189zM7.246 29.962c0.169 0 0.326-0.041 0.472-0.124s0.263-0.206 0.354-0.371c0.090-0.165 0.136-0.369 0.136-0.613s-0.045-0.448-0.136-0.613c-0.086-0.165-0.202-0.289-0.348-0.371s-0.301-0.124-0.466-0.124c-0.169 0-0.326 0.041-0.472 0.124s-0.263 0.206-0.354 0.371c-0.090 0.165-0.136 0.369-0.136 0.613s0.045 0.448 0.136 0.613c0.090 0.165 0.206 0.289 0.348 0.371 0.145 0.083 0.301 0.124 0.466 0.124zM10.728 30.387c-0.291 0-0.546-0.067-0.766-0.2-0.216-0.134-0.385-0.316-0.507-0.548-0.118-0.232-0.177-0.495-0.177-0.79s0.061-0.556 0.183-0.784c0.122-0.232 0.291-0.413 0.507-0.542 0.216-0.134 0.472-0.2 0.766-0.2 0.24 0 0.452 0.049 0.637 0.147s0.328 0.236 0.43 0.413v-1.81h0.495v4.244h-0.448l-0.047-0.483c-0.094 0.141-0.23 0.269-0.407 0.383s-0.399 0.171-0.666 0.171zM10.781 29.956c0.196 0 0.369-0.045 0.519-0.136 0.153-0.094 0.271-0.224 0.354-0.389 0.086-0.165 0.13-0.358 0.13-0.578s-0.043-0.413-0.13-0.578c-0.083-0.165-0.2-0.293-0.354-0.383-0.149-0.094-0.322-0.141-0.519-0.141-0.193 0-0.365 0.047-0.519 0.141-0.149 0.090-0.267 0.218-0.354 0.383-0.083 0.165-0.124 0.358-0.124 0.578s0.041 0.413 0.124 0.578c0.086 0.165 0.204 0.295 0.354 0.389 0.153 0.090 0.326 0.136 0.519 0.136zM15.819 30.316c-0.267 0-0.477-0.065-0.631-0.195s-0.23-0.363-0.23-0.701v-1.609h-0.507v-0.419h0.507l0.065-0.701h0.43v0.701h0.861v0.419h-0.861v1.609c0 0.185 0.037 0.31 0.112 0.377 0.075 0.063 0.206 0.094 0.395 0.094h0.307v0.424h-0.448zM16.943 30.316v-2.924h0.448l0.041 0.56c0.090-0.193 0.228-0.346 0.413-0.46s0.413-0.171 0.684-0.171v0.519h-0.136c-0.173 0-0.332 0.031-0.477 0.094-0.145 0.059-0.261 0.161-0.348 0.307s-0.13 0.346-0.13 0.601v1.474h-0.495zM21.643 27.392v2.924h-0.448l-0.029-0.525c-0.094 0.185-0.23 0.33-0.407 0.436s-0.377 0.159-0.601 0.159c-0.346 0-0.623-0.104-0.831-0.312-0.204-0.212-0.307-0.536-0.307-0.973v-1.709h0.495v1.656c0 0.609 0.252 0.914 0.755 0.914 0.252 0 0.46-0.090 0.625-0.271 0.169-0.185 0.253-0.446 0.253-0.784v-1.515h0.495zM23.802 30.387c-0.279 0-0.531-0.063-0.755-0.189-0.22-0.13-0.395-0.308-0.525-0.536-0.126-0.232-0.189-0.501-0.189-0.808s0.063-0.574 0.189-0.802c0.13-0.232 0.305-0.411 0.525-0.536 0.224-0.13 0.476-0.195 0.755-0.195 0.346 0 0.637 0.090 0.872 0.271 0.24 0.181 0.391 0.422 0.454 0.725h-0.507c-0.039-0.181-0.136-0.32-0.289-0.419-0.153-0.102-0.332-0.153-0.536-0.153-0.165 0-0.32 0.041-0.466 0.124s-0.263 0.206-0.354 0.371c-0.090 0.165-0.136 0.369-0.136 0.613s0.045 0.448 0.136 0.613c0.090 0.165 0.208 0.291 0.354 0.377 0.145 0.083 0.301 0.124 0.466 0.124 0.204 0 0.383-0.049 0.536-0.147 0.153-0.102 0.25-0.246 0.289-0.43h0.507c-0.059 0.295-0.208 0.534-0.448 0.719s-0.532 0.277-0.878 0.277zM25.82 30.316v-4.244h0.495v2.552l1.197-1.232h0.607l-1.297 1.32 1.462 1.603h-0.631l-1.338-1.515v1.515h-0.495zM29.737 30.387c-0.35 0-0.641-0.088-0.872-0.265s-0.367-0.417-0.407-0.719h0.507c0.031 0.153 0.112 0.287 0.242 0.401 0.134 0.11 0.312 0.165 0.536 0.165 0.208 0 0.362-0.043 0.46-0.13 0.098-0.090 0.147-0.197 0.147-0.318 0-0.177-0.065-0.295-0.195-0.354-0.126-0.059-0.305-0.112-0.536-0.159-0.157-0.031-0.314-0.077-0.472-0.136s-0.289-0.141-0.395-0.248c-0.106-0.11-0.159-0.253-0.159-0.43 0-0.255 0.094-0.464 0.283-0.625 0.193-0.165 0.452-0.248 0.778-0.248 0.31 0 0.564 0.079 0.76 0.236 0.2 0.153 0.316 0.373 0.348 0.66h-0.489c-0.020-0.149-0.084-0.265-0.195-0.348-0.106-0.086-0.25-0.13-0.43-0.13-0.177 0-0.314 0.037-0.413 0.112-0.094 0.075-0.141 0.173-0.141 0.295 0 0.118 0.061 0.21 0.183 0.277 0.126 0.067 0.295 0.124 0.507 0.171 0.181 0.039 0.352 0.088 0.513 0.147 0.165 0.055 0.299 0.14 0.401 0.253 0.106 0.11 0.159 0.271 0.159 0.483 0.004 0.263-0.096 0.481-0.301 0.654-0.2 0.169-0.474 0.253-0.819 0.253z">
            </path>
        </symbol>
        <symbol id="icon-cafes-desktop" viewBox="0 0 30 32">
            <path fill="#fff" style="fill: var(--color1, #fff)"
                d="M29.922 6.234c0 3.443-2.791 6.234-6.234 6.234s-6.234-2.791-6.234-6.234c0-3.443 2.791-6.234 6.234-6.234s6.234 2.791 6.234 6.234z">
            </path>
            <path fill="#d41443" style="fill: var(--color2, #d41443)"
                d="M8.252 19.905c0 0.14-0.389 0.255-1.166 0.344-0.777 0.076-1.555 0.115-2.332 0.115s-1.281-0.032-1.51-0.096c-0.217-0.076-0.325-0.198-0.325-0.363v-8.258h-1.95c-0.217 0-0.325-0.465-0.325-1.396s0.108-1.771 0.325-2.523c0.064-0.242 0.739-0.465 2.026-0.669s2.275-0.306 2.963-0.306c0.688 0 1.147 0.025 1.376 0.076s0.401 0.115 0.516 0.191c0.115 0.064 0.204 0.14 0.268 0.229 0.089 0.14 0.134 0.274 0.134 0.401v12.254zM15.691 12.010c0.115-0.102 0.421-0.236 0.918-0.401s1.058-0.249 1.682-0.249c0.637 0 1.172 0.096 1.606 0.287 0.446 0.178 0.79 0.408 1.032 0.688 0.255 0.28 0.452 0.631 0.593 1.051 0.229 0.688 0.344 1.389 0.344 2.103s-0.032 1.255-0.096 1.625c-0.051 0.357-0.191 0.758-0.421 1.204-0.217 0.446-0.516 0.822-0.898 1.128-0.37 0.306-0.905 0.567-1.606 0.784-0.688 0.204-1.498 0.306-2.428 0.306-2.001 0-3.511-0.548-4.531-1.644-1.020-1.109-1.529-2.893-1.529-5.353 0-2.472 0.478-4.25 1.434-5.334 0.956-1.096 2.409-1.644 4.359-1.644 1.338 0 2.498 0.102 3.479 0.306 0.994 0.191 1.491 0.421 1.491 0.688 0 0.331-0.127 0.911-0.382 1.74-0.242 0.828-0.465 1.243-0.669 1.243-0.064 0-0.255-0.032-0.573-0.096-0.867-0.178-1.657-0.268-2.37-0.268s-1.173 0.178-1.376 0.535c-0.204 0.344-0.306 0.854-0.306 1.529 0.051-0.064 0.134-0.14 0.249-0.229zM16.112 13.73c-0.37 0-0.554 0.688-0.554 2.065 0 1.364 0.185 2.045 0.554 2.045 0.395 0 0.593-0.682 0.593-2.046 0-1.376-0.198-2.065-0.593-2.065z">
            </path>
            <path fill="#fff" style="fill: var(--color1, #fff)"
                d="M9.658 30.407c-0.275 0-0.524-0.062-0.745-0.186-0.217-0.128-0.39-0.305-0.518-0.529-0.124-0.229-0.186-0.495-0.186-0.797s0.062-0.566 0.186-0.791c0.128-0.229 0.301-0.405 0.518-0.529 0.221-0.128 0.469-0.192 0.745-0.192 0.341 0 0.628 0.089 0.861 0.268 0.237 0.178 0.386 0.417 0.448 0.716h-0.5c-0.039-0.178-0.134-0.316-0.285-0.413-0.151-0.101-0.328-0.151-0.529-0.151-0.163 0-0.316 0.041-0.46 0.122s-0.26 0.204-0.349 0.367c-0.089 0.163-0.134 0.365-0.134 0.605s0.045 0.442 0.134 0.605c0.089 0.163 0.206 0.287 0.349 0.372 0.144 0.081 0.297 0.122 0.46 0.122 0.202 0 0.378-0.049 0.529-0.145 0.151-0.101 0.246-0.242 0.285-0.425h0.5c-0.058 0.291-0.206 0.527-0.442 0.71s-0.526 0.273-0.867 0.273zM12.61 30.407c-0.241 0-0.44-0.041-0.599-0.122s-0.277-0.19-0.355-0.326c-0.078-0.136-0.116-0.283-0.116-0.442 0-0.295 0.113-0.522 0.337-0.681s0.531-0.239 0.919-0.239h0.78v-0.035c0-0.252-0.066-0.442-0.198-0.57-0.132-0.132-0.308-0.198-0.529-0.198-0.19 0-0.355 0.049-0.495 0.145-0.136 0.093-0.221 0.231-0.256 0.413h-0.5c0.019-0.209 0.089-0.386 0.209-0.529 0.124-0.143 0.277-0.252 0.46-0.326 0.182-0.078 0.376-0.116 0.582-0.116 0.403 0 0.706 0.109 0.908 0.326 0.206 0.213 0.308 0.498 0.308 0.855v1.775h-0.436l-0.029-0.518c-0.081 0.163-0.202 0.303-0.361 0.419-0.155 0.113-0.365 0.169-0.628 0.169zM12.685 29.994c0.186 0 0.345-0.049 0.477-0.145 0.136-0.097 0.239-0.223 0.308-0.378s0.105-0.318 0.105-0.489v-0.006h-0.739c-0.287 0-0.491 0.050-0.611 0.151-0.116 0.097-0.175 0.219-0.175 0.367 0 0.151 0.054 0.273 0.163 0.367 0.113 0.089 0.27 0.134 0.471 0.134zM14.955 30.338v-2.473h-0.436v-0.413h0.436v-0.5c0-0.279 0.070-0.483 0.209-0.611s0.343-0.192 0.611-0.192h0.291v0.419h-0.215c-0.147 0-0.252 0.031-0.314 0.093-0.062 0.058-0.093 0.159-0.093 0.303v0.489h0.71v0.413h-0.71v2.473h-0.489zM17.919 30.407c-0.275 0-0.52-0.062-0.733-0.186-0.213-0.128-0.382-0.305-0.506-0.529-0.12-0.225-0.18-0.491-0.18-0.797 0-0.303 0.060-0.566 0.18-0.791 0.12-0.229 0.287-0.405 0.5-0.529 0.217-0.128 0.467-0.192 0.751-0.192 0.279 0 0.52 0.064 0.721 0.192 0.206 0.124 0.363 0.289 0.471 0.495s0.163 0.427 0.163 0.663c0 0.043-0.002 0.085-0.006 0.128 0 0.043 0 0.091 0 0.145h-2.298c0.012 0.221 0.062 0.405 0.151 0.553 0.093 0.143 0.207 0.252 0.343 0.326 0.14 0.074 0.287 0.111 0.442 0.111 0.202 0 0.37-0.047 0.506-0.14s0.235-0.219 0.297-0.378h0.483c-0.078 0.268-0.227 0.491-0.448 0.669-0.217 0.175-0.497 0.262-0.838 0.262zM17.919 27.795c-0.233 0-0.44 0.072-0.623 0.215-0.178 0.14-0.281 0.345-0.308 0.617h1.815c-0.012-0.26-0.101-0.463-0.268-0.611s-0.372-0.221-0.617-0.221zM21.039 30.407c-0.345 0-0.632-0.087-0.861-0.262s-0.363-0.411-0.401-0.71h0.5c0.031 0.151 0.111 0.283 0.239 0.396 0.132 0.109 0.308 0.163 0.529 0.163 0.206 0 0.357-0.043 0.454-0.128 0.097-0.089 0.145-0.194 0.145-0.314 0-0.175-0.064-0.291-0.192-0.349-0.124-0.058-0.301-0.111-0.529-0.157-0.155-0.031-0.31-0.076-0.465-0.134s-0.285-0.14-0.39-0.244c-0.105-0.109-0.157-0.25-0.157-0.425 0-0.252 0.093-0.458 0.279-0.617 0.19-0.163 0.446-0.244 0.768-0.244 0.306 0 0.557 0.078 0.751 0.233 0.198 0.151 0.312 0.369 0.343 0.652h-0.483c-0.019-0.147-0.083-0.262-0.192-0.343-0.105-0.085-0.246-0.128-0.425-0.128-0.175 0-0.31 0.037-0.407 0.111-0.093 0.074-0.14 0.171-0.14 0.291 0 0.116 0.060 0.207 0.18 0.273 0.124 0.066 0.291 0.122 0.5 0.169 0.178 0.039 0.347 0.087 0.506 0.145 0.163 0.054 0.295 0.138 0.396 0.25 0.105 0.109 0.157 0.268 0.157 0.477 0.004 0.26-0.095 0.475-0.297 0.646-0.198 0.167-0.467 0.25-0.809 0.25z">
            </path>
        </symbol>
        <symbol id="icon-close" viewBox="0 0 32 32">
            <path stroke="#fff" stroke-width="2" stroke-miterlimit="4" stroke-linecap="butt" stroke-linejoin="miter"
                style="stroke: var(--color1, #fff)" d="M2.519 2l26.963 28"></path>
            <path stroke="#fff" stroke-width="2" stroke-miterlimit="4" stroke-linecap="butt" stroke-linejoin="miter"
                style="stroke: var(--color1, #fff)" d="M2 29.481l28-26.963"></path>
        </symbol>
        <symbol id="icon-home" viewBox="0 0 35 32">
            <path fill="#d31342" style="fill: var(--color1, #d31342)" d="M32.64 15.401c0.599-0.65 0.541-1.646-0.129-2.225l-14.772-12.75c-0.671-0.578-1.745-0.566-2.402 0.027l-14.822 13.403c-0.656 0.594-0.689 1.589-0.071 2.222l0.372 0.382c0.617 0.633 1.613 0.708 2.224 0.168l1.108-0.979v14.326c0 0.879 0.722 1.591 1.612 1.591h5.778c0.89 0 1.612-0.712 1.612-1.591v-10.023h7.37v10.023c-0.013 0.878 0.624 1.59 1.515 1.59h6.123c0.89 0 1.613-0.711 1.613-1.59v-14.124c0 0 0.306 0.264 0.683 0.592s1.168 0.065 1.767-0.586l0.42-0.455z"></path>
        </symbol>
        <symbol id="icon-email-black" viewBox="0 0 32 32">
<path d="M26.667 5.333h-21.333c-1.467 0-2.653 1.2-2.653 2.667l-0.013 16c0 1.467 1.2 2.667 2.667 2.667h21.333c1.467 0 2.667-1.2 2.667-2.667v-16c0-1.467-1.2-2.667-2.667-2.667zM26.133 11l-9.427 5.893c-0.427 0.267-0.987 0.267-1.413 0l-9.427-5.893c-0.333-0.213-0.533-0.573-0.533-0.96 0-0.893 0.973-1.427 1.733-0.96l8.933 5.587 8.933-5.587c0.76-0.467 1.733 0.067 1.733 0.96 0 0.387-0.2 0.747-0.533 0.96z"></path>
</symbol>
<symbol id="icon-phone-black" viewBox="0 0 32 32">
<path d="M24.882 19.773l-3.268-0.373c-0.785-0.090-1.557 0.18-2.11 0.733l-2.367 2.367c-3.641-1.853-6.626-4.825-8.478-8.478l2.38-2.38c0.553-0.553 0.823-1.325 0.733-2.11l-0.373-3.242c-0.154-1.299-1.248-2.277-2.56-2.277h-2.226c-1.454 0-2.663 1.209-2.573 2.663 0.682 10.987 9.469 19.761 20.443 20.443 1.454 0.090 2.663-1.119 2.663-2.573v-2.226c0.013-1.3-0.965-2.393-2.264-2.547z"></path>
</symbol>
<symbol id="icon-person-black" viewBox="0 0 32 32">
<path d="M16 16c2.947 0 5.333-2.387 5.333-5.333s-2.387-5.333-5.333-5.333c-2.947 0-5.333 2.387-5.333 5.333s2.387 5.333 5.333 5.333zM16 18.667c-3.56 0-10.667 1.787-10.667 5.333v1.333c0 0.733 0.6 1.333 1.333 1.333h18.667c0.733 0 1.333-0.6 1.333-1.333v-1.333c0-3.547-7.107-5.333-10.667-5.333z"></path>
</symbol>
    </defs>
</svg>